<?xml version="1.0" encoding="utf-8"?>
<!-- Generator: Adobe Illustrator 23.0.0, SVG Export Plug-In . SVG Version: 6.00 Build 0)  -->
<svg version="1.1" id="e8c09660-db65-4061-a2dc-920e909a0453"
	 xmlns="http://www.w3.org/2000/svg" xmlns:xlink="http://www.w3.org/1999/xlink" x="0px" y="0px" viewBox="0 0 1071.7 742.9"
	 style="enable-background:new 0 0 1071.7 742.9;" xml:space="preserve">
<style type="text/css">
	.st0{opacity:0.1;fill:#99C3FF;enable-background:new    ;}
	.st1{fill:#99C3FF;enable-background:new    ;}
	.st2{opacity:0.7;fill:#99C3FF;enable-background:new    ;}
	.st3{fill:#BBDAFF;enable-background:new    ;}
	.st4{fill:#FFFFFF;stroke:#99C3FF;stroke-miterlimit:10;enable-background:new    ;}
	.st5{fill:#FFB8B8;}
	.st6{opacity:0.1;enable-background:new    ;}
	.st7{fill:#FF6584;}
	.st8{fill:#2F2E41;}
	.st9{fill:#3F3D56;}
	.st10{fill:#D0CDE1;}
	.st11{fill:#F2F2F2;}
	.st12{opacity:0.3;fill:#99C3FF;enable-background:new    ;}
	.st13{enable-background:new    ;}
	.st14{fill:#99C3FF;}
</style>
<path class="st0" d="M92.7,686.6c63.7,73.4,195.7,1.6,484.6,14.5c195,8.7,224.4,45.3,295.3,9.6c145.6-73.3,163.7-300.3,152.1-426.7
	c-7.2-78.7-17.2-188.4-97-235.1c-120.1-70.2-269.9,137.8-456.6,80.8C367,97.9,357.8,19.1,251.2,10.4c-74.8-6.1-176.5,24-221.2,94
	c-58.3,91.3,35.1,164.7,46.7,425C81.5,637.1,66.9,657,92.7,686.6z"/>
<path class="st1" d="M999.3,530.2c0,15.5-143.7,62-321,62s-321-46.5-321-62s143.7,6,321,6S999.3,514.7,999.3,530.2z"/>
<path class="st2" d="M999,530.2c0,15.5-143.7,62-321,62s-321-46.5-321-62s143.7,6,321,6S999,514.7,999,530.2z"/>
<ellipse class="st3" cx="678.3" cy="530.2" rx="321" ry="28"/>
<rect x="42.3" y="254.2" class="st4" width="475" height="273"/>
<title>web_development</title>
<path class="st5" d="M589,302.3c0,0,12.9,20.5,8.3,26s34.6,5.7,34.6,5.7s-5.9-29.8-4.2-36.6L589,302.3z"/>
<path class="st6" d="M589,302.3c0,0,12.9,20.5,8.3,26s34.6,5.7,34.6,5.7s-5.9-29.8-4.2-36.6L589,302.3z"/>
<circle class="st7" cx="609.6" cy="269.3" r="40.5"/>
<polygon class="st5" points="704.8,488.7 704.8,512.7 728.8,507.7 726.8,490.7 "/>
<path class="st5" d="M789.8,492.7l67,11l-17,25c0,0-47-16-59-16S789.8,492.7,789.8,492.7z"/>
<path class="st8" d="M637.8,444.7c0,0,50-58,66-55s23,21,23,21l9,89c0,0-32,3-32,0s-6-67-6-67s-47,104-72,35L637.8,444.7z"/>
<path class="st8" d="M556.8,483.7c0,0,1,50,31,53s63-20,63-20l54-25.9c0,0,64,33.9,83,24.9c0,0,20-21,7-27s-1,0-1,0l-77-40
	c0,0-15-4-41,7s-61,16-61,16L556.8,483.7z"/>
<circle class="st5" cx="606.8" cy="282.7" r="30"/>
<path class="st9" d="M649.8,366.7l-2,42c0,0,1,55-8,59c-4.5,2-13.7,6.1-22.1,10.5c-6.3,3.3-12.3,6.8-15.6,9.9
	c-0.9,0.7-1.6,1.6-2.3,2.6c-4,7-30,6-36,1s-2,6-7,8c-4.8,1.9-11.5-13.9-7.4-37.6c0.1-0.8,0.3-1.6,0.4-2.4c4.6-23-2.6-77.9-1.5-99.2
	c0.1-1.6,0.2-3.2,0.5-4.8c3-16,41.3-48.6,48.4-34.7c8.8,17.1,29.1,1.5,32.6-6.3c20-1,27,23,27,23L649.8,366.7z"/>
<path class="st8" d="M730.8,503.7c0,0-16,6-21,5s-10,3-10,9c0,6-6,20,3,21s46-1,54,2c0,0,36,1,33-14c-3-15-18-14-18-14
	S730.8,510.7,730.8,503.7z"/>
<path class="st8" d="M847.8,506.7c0,0,2-6,5-6s27,4,30,3s38-3,32,14c-6,17-26,19-26,19s-36-4-41-3s-23,0-20-5
	S849.8,514.7,847.8,506.7z"/>
<path class="st10" d="M756.8,363.1l5.5,22.6c0.1,0.3,0.1,0.5,0,0.8l-24.9,77.8c-0.2,0.7-1,1.2-1.8,0.9c-0.5-0.2-0.9-0.6-1-1.2
	l-3.4-30.3c0-0.2,0-0.4,0.1-0.6l22.8-70.1c0.2-0.7,1-1.1,1.8-0.9C756.3,362.2,756.7,362.6,756.8,363.1z"/>
<polygon class="st11" points="754.8,365 759.9,384.4 737.9,455.3 732.8,433.3 "/>
<path class="st10" d="M644.2,470.5c0.8,2.5,87.8-0.8,88.6-1.7c0.7-1.1,1.4-2.2,1.9-3.4c0.8-1.7,1.5-3.4,1.5-3.4l-3.4-27.3l-86.1-3.1
	c0,0-2.2,23.2-2.6,33.8C644,467.1,644,468.8,644.2,470.5z"/>
<polygon class="st6" points="721.9,438.4 723.6,462 685.6,462 685.6,438.4 "/>
<polygon class="st6" points="672.9,446 673.1,446 672.1,456.1 650.9,456.1 650.9,446 "/>
<path class="st6" d="M644.2,470.5c0.8,2.5,87.8-0.8,88.6-1.7c0.7-1.1,1.4-2.2,1.9-3.4h-90.6C644,467.1,644,468.8,644.2,470.5z"/>
<path class="st7" d="M632.1,195.1c-3.1,4.4-7.6,7.5-12.8,8.8c-8.9,2.4-0.1,15.8-0.1,15.8s-3.2-4.9,1.4-10S632.8,201,632.1,195.1z"/>
<circle class="st7" cx="616.3" cy="225" r="11.3"/>
<path class="st9" d="M630.7,234.5c-9.2-3.5-24.5-5.2-32.4-4l1.1-7.9c7.6,3.9,22.8,5.8,32.4,4L630.7,234.5z"/>
<path class="st7" d="M612.9,237.3c0,0-11.5,19.2-38.3,26.4s-0.2,47.5-0.2,47.5s-9.7-14.6,4.3-30.2S615,254.8,612.9,237.3z"/>
<path class="st7" d="M613.8,236.1c0,0,11.1,26.3,23.2,28.8s11.2,44.1-7.8,50.3c0,0,13.9-24.4,2-40.8S612,245.2,613.8,236.1z"/>
<path class="st6" d="M617.7,478.2c-2.5,4.7-5.4,9.5-5.9,11.5c-0.3,1.3-4,0.6-9.8-1.6c-11.5-4.4-31.6-14.4-50.3-24.4
	c-0.9-0.5-1.7-1-2.4-1.6c0.1-0.8,0.3-1.6,0.4-2.4c4.6-23-2.6-77.9-1.5-99.2l8.5-2.8l17,16v68c0,0,44,24,47,26
	C622.4,468.7,620.3,473.4,617.7,478.2z"/>
<path class="st5" d="M654.8,423.7l27,14c0,0,16-17,26-4s-29,17-29,17s-34-8-35-19S654.8,423.7,654.8,423.7z"/>
<path class="st5" d="M609.8,460.7l16,4c0,0,18-22,37-14s-24,24-24,24s-23,12-32,2S609.8,460.7,609.8,460.7z"/>
<path class="st9" d="M644.8,328.7c1,1,12,9,12,9s3,38-1,46s-7,8-4,12s7,1,3,8s-8,6-5,9s2,4,2,4l12,10c0,0-7.4,11.7-16.7,10.9
	s-17.3-45.9-17.3-45.9L644.8,328.7z"/>
<path class="st9" d="M556.8,352.7l-9,3c0,0-24,88,4,103s59,30,60,26s12-20,9-22s-47-26-47-26v-68L556.8,352.7z"/>
<polygon class="st6" points="570.3,389.2 568.3,437.2 621.3,462.2 572.3,437.2 "/>
<path class="st1" d="M1016.4,496.8c-20.2,11.9-28.1,35.8-28.1,35.8s24.7,4.6,44.9-7.3c20.2-11.9,28.1-35.8,28.1-35.8
	S1036.6,484.9,1016.4,496.8z"/>
<path class="st12" d="M1023.5,504.2c-11.3,20.5-34.9,29.1-34.9,29.1s-5.3-24.6,5.9-45.1s34.9-29.1,34.9-29.1
	S1034.8,483.7,1023.5,504.2z"/>
<circle class="st1" cx="59.3" cy="263.2" r="4"/>
<circle class="st1" cx="70.3" cy="263.2" r="4"/>
<circle class="st1" cx="81.3" cy="263.2" r="4"/>
<rect x="116.3" y="414.1" class="st1" width="58" height="6"/>
<rect x="116.3" y="427.1" class="st1" width="54.9" height="6"/>
<rect x="116.3" y="440.1" class="st1" width="40" height="6"/>
<g class="st13">
	<rect x="251.3" y="414.1" class="st14" width="58" height="6"/>
	<rect x="251.3" y="427.1" class="st14" width="54.9" height="6"/>
	<rect x="251.3" y="440.1" class="st14" width="40" height="6"/>
	<rect x="251.3" y="414.1" class="st12" width="58" height="6"/>
	<rect x="251.3" y="427.1" class="st12" width="54.9" height="6"/>
	<rect x="251.3" y="440.1" class="st12" width="40" height="6"/>
</g>
<rect x="391.3" y="414.1" class="st1" width="58" height="6"/>
<rect x="391.3" y="427.1" class="st1" width="54.9" height="6"/>
<rect x="391.3" y="440.1" class="st1" width="40" height="6"/>
<rect x="108.3" y="336.1" class="st12" width="74" height="66"/>
<rect x="243.3" y="336.1" class="st12" width="74" height="66"/>
<rect x="383.3" y="336.1" class="st12" width="74" height="66"/>
<path class="st1" d="M270.7,401.8l-1,0c0-1.1,0.6-26.6,10.7-33.6l0.6,0.8C271.3,375.7,270.7,401.5,270.7,401.8z"/>
<circle class="st1" cx="285.5" cy="363" r="4.9"/>
<path class="st1" d="M284.6,380.2c-2.5,0.8-5.2,0.9-7.8,0.3c3.4-4.3,8.9-6.2,14.2-4.9C289.3,377.7,287,379.3,284.6,380.2z"/>
<path class="st1" d="M410.7,401.8l-1,0c0-1.1,0.6-26.6,10.7-33.6l0.6,0.8C411.3,375.7,410.7,401.5,410.7,401.8z"/>
<circle class="st1" cx="425.5" cy="363" r="4.9"/>
<path class="st1" d="M424.6,380.2c-2.5,0.8-5.2,0.9-7.8,0.3c3.4-4.3,8.9-6.2,14.2-4.9C429.3,377.7,427,379.3,424.6,380.2z"/>
<rect x="44.3" y="272.3" class="st0" width="477" height="2"/>
</svg>
